<?xml version="1.0" standalone="no"?>
<!DOCTYPE svg PUBLIC "-//W3C//DTD SVG 20010904//EN"
 "http://www.w3.org/TR/2001/REC-SVG-20010904/DTD/svg10.dtd">
<svg version="1.0" xmlns="http://www.w3.org/2000/svg"
 width="225.000000pt" height="225.000000pt" viewBox="0 0 225.000000 225.000000"
 preserveAspectRatio="xMidYMid meet">

<g transform="translate(0.000000,225.000000) scale(0.100000,-0.100000)"
fill="#000000" stroke="none">
<path d="M966 2230 c-450 -71 -804 -393 -923 -838 -23 -86 -26 -116 -26 -267
0 -151 3 -181 26 -267 109 -408 407 -706 815 -815 86 -23 116 -26 267 -26 151
0 181 3 267 26 408 109 706 407 815 815 23 86 26 116 26 267 0 151 -3 181 -26
267 -109 408 -411 710 -815 814 -109 29 -322 40 -426 24z m369 -47 c364 -70
676 -337 804 -689 65 -177 82 -398 46 -574 -105 -513 -542 -873 -1060 -873
-598 0 -1078 480 -1078 1078 0 682 616 1188 1288 1058z"/>
<path d="M1097 2106 c38 -17 51 -61 31 -103 -14 -30 -50 -42 -72 -24 -22 18
-28 71 -12 102 16 33 7 38 -17 11 -20 -22 -22 -81 -4 -105 6 -10 28 -20 47
-23 51 -8 90 24 90 74 0 46 -8 58 -43 71 -41 16 -58 13 -20 -3z"/>
<path d="M1213 2058 c-1 -29 -4 -62 -8 -75 -5 -20 -2 -23 22 -22 16 0 23 3 16
5 -13 6 -7 96 9 127 7 14 4 17 -14 17 -21 0 -23 -5 -25 -52z"/>
<path d="M921 2093 c0 -5 7 -24 15 -43 9 -22 12 -26 9 -10 -2 14 -5 33 -5 43
0 9 -4 17 -10 17 -5 0 -10 -3 -9 -7z"/>
<path d="M816 2043 c8 -34 14 -42 14 -20 0 12 17 4 66 -29 36 -26 67 -45 69
-43 2 2 1 17 -2 32 -3 16 -9 24 -12 18 -4 -7 -27 4 -61 29 -67 48 -83 50 -74
13z"/>
<path d="M1361 2044 c-12 -15 -21 -40 -21 -55 0 -29 30 -69 52 -69 6 0 4 6 -7
14 -37 27 -11 120 37 129 17 3 15 5 -9 6 -23 1 -37 -6 -52 -25z"/>
<path d="M1458 2048 c23 -23 14 -77 -18 -109 -27 -27 -27 -30 -7 -24 30 9 67
51 67 78 0 26 -26 67 -43 67 -8 0 -8 -3 1 -12z"/>
<path d="M722 2031 c-8 -5 -12 -17 -10 -27 2 -15 5 -13 15 9 14 30 14 30 -5
18z"/>
<path d="M631 1986 c-19 -11 -21 -14 -7 -19 9 -4 28 -31 43 -61 16 -34 31 -52
39 -49 10 4 8 15 -9 46 -12 23 -26 54 -32 69 -9 24 -12 25 -34 14z"/>
<path d="M834 1963 c0 -24 4 -43 8 -43 14 0 15 16 3 50 l-13 35 2 -42z"/>
<path d="M699 1968 c-1 -10 -2 -23 -3 -30 -1 -11 55 -36 87 -37 31 -2 18 16
-24 29 -24 8 -45 23 -49 34 -8 18 -9 19 -11 4z"/>
<path d="M1536 1958 c-23 -33 -20 -75 8 -103 35 -35 70 -41 94 -17 20 20 20
20 -4 30 -18 9 -22 8 -18 -2 3 -7 -2 -18 -10 -25 -13 -11 -20 -8 -42 14 -20
20 -24 32 -19 53 9 37 32 60 64 65 17 3 12 5 -16 6 -33 1 -45 -4 -57 -21z"/>
<path d="M1280 1960 c-13 -8 -12 -10 3 -10 9 0 17 5 17 10 0 12 -1 12 -20 0z"/>
<path d="M1656 1947 c11 -14 22 -23 27 -20 10 6 0 21 -25 34 -20 11 -20 11 -2
-14z"/>
<path d="M522 1911 c-19 -16 -29 -30 -23 -32 5 -2 28 -28 49 -56 l39 -53 38
33 c29 25 35 36 25 42 -8 5 -11 4 -6 -3 3 -6 -4 -18 -16 -26 -20 -14 -24 -14
-40 1 -24 21 -23 40 2 48 11 4 18 11 15 16 -4 5 -13 2 -22 -6 -18 -18 -32 -16
-47 9 -9 13 -7 20 8 31 10 8 23 12 29 8 6 -3 7 -1 3 5 -10 17 -17 15 -54 -17z"/>
<path d="M1743 1894 c3 -6 -15 -34 -42 -62 -45 -50 -47 -53 -29 -69 15 -14 18
-14 18 -1 0 8 19 36 43 62 43 46 43 46 24 64 -11 9 -18 12 -14 6z"/>
<path d="M1025 1874 c-311 -51 -548 -263 -631 -565 -24 -88 -24 -280 0 -368
75 -273 274 -472 547 -547 88 -24 280 -24 368 0 273 75 472 274 547 547 24 88
24 280 0 368 -74 271 -276 474 -541 545 -61 17 -236 28 -290 20z m-151 -195
c-8 -14 -34 -11 -34 4 0 8 3 17 7 20 9 9 34 -13 27 -24z m547 -6 c28 -27 41
-49 46 -76 6 -37 5 -38 -21 -31 -37 9 -33 -3 19 -48 52 -46 56 -68 18 -106
-15 -15 -28 -31 -29 -37 0 -5 -2 -15 -2 -21 -1 -5 -11 -20 -23 -32 l-20 -23
29 -45 c54 -81 67 -219 27 -280 -15 -24 -15 -26 14 -50 40 -34 55 -81 41 -133
-21 -78 -80 -97 -202 -66 -53 14 -62 14 -90 0 -41 -20 -57 -19 -83 5 l-22 20
-18 -20 c-21 -23 -52 -25 -79 -5 -25 19 -67 19 -113 0 -83 -35 -160 -10 -183
60 -19 56 8 137 50 150 18 6 18 7 0 48 -41 90 -21 216 48 289 l25 27 -32 37
-32 36 20 22 c19 21 19 21 0 45 -22 27 -26 103 -6 118 6 6 37 9 67 8 107 -4
100 -1 101 -42 2 -34 2 -35 6 -8 7 46 39 82 98 110 l55 25 49 -24 c57 -29 101
-78 101 -112 0 -19 5 -24 24 -24 42 0 43 34 2 82 -34 39 -35 43 -19 60 15 17
18 17 34 2 17 -16 19 -16 25 0 3 9 4 30 2 46 -6 43 22 40 73 -7z m-501 11 c0
-13 3 -14 14 -5 11 10 17 6 30 -20 20 -40 20 -49 0 -49 -11 0 -15 6 -11 19 3
14 -4 22 -29 32 -34 13 -47 39 -19 39 8 0 15 -7 15 -16z m-84 -15 c10 -17 -13
-36 -27 -22 -12 12 -4 33 11 33 5 0 12 -5 16 -11z m-26 -44 c0 -8 -7 -15 -15
-15 -8 0 -15 7 -15 15 0 8 7 15 15 15 8 0 15 -7 15 -15z m3 -32 c9 -9 -13 -34
-24 -27 -14 8 -11 34 4 34 8 0 17 -3 20 -7z m170 -8 c1 -5 -6 -11 -15 -13 -11
-2 -18 3 -18 13 0 17 30 18 33 0z m-39 -897 c94 -3 176 -6 181 -6 6 0 87 3
181 6 122 5 176 11 188 21 20 17 21 5 6 -50 -17 -59 -28 -63 -186 -69 -129 -5
-146 -7 -165 -26 -20 -21 -22 -21 -39 -4 -23 23 -108 34 -193 26 -103 -9 -157
23 -171 103 -5 30 -4 32 10 20 12 -10 66 -16 188 -21z"/>
<path d="M1370 1652 c0 -16 -8 -36 -19 -46 -16 -15 -19 -15 -31 -1 -7 9 -15
13 -17 11 -7 -6 50 -76 61 -76 5 0 2 7 -5 16 -19 23 15 47 58 40 27 -4 31 -2
26 12 -8 22 -34 52 -55 63 -15 8 -18 5 -18 -19z"/>
<path d="M1085 1580 c-19 -38 -20 -90 -1 -90 20 0 24 8 32 68 8 60 -6 70 -31
22z"/>
<path d="M1140 1575 c0 -45 16 -85 35 -85 30 0 11 102 -21 114 -10 4 -14 -4
-14 -29z"/>
<path d="M1032 1567 c-26 -27 -30 -77 -7 -77 10 0 15 10 15 31 0 17 5 39 10
50 14 25 8 24 -18 -4z"/>
<path d="M1209 1573 c6 -12 11 -35 11 -52 0 -21 5 -31 15 -31 26 0 18 54 -11
81 -25 23 -26 23 -15 2z"/>
<path d="M842 1525 c0 -16 2 -22 5 -12 2 9 2 23 0 30 -3 6 -5 -1 -5 -18z"/>
<path d="M872 1525 c0 -16 2 -22 5 -12 2 9 2 23 0 30 -3 6 -5 -1 -5 -18z"/>
<path d="M902 1525 c0 -16 2 -22 5 -12 2 9 2 23 0 30 -3 6 -5 -1 -5 -18z"/>
<path d="M811 1524 c0 -11 3 -14 6 -6 3 7 2 16 -1 19 -3 4 -6 -2 -5 -13z"/>
<path d="M928 1513 c-5 -20 -13 -23 -62 -23 -60 0 -64 -4 -41 -38 l16 -22 40
30 c22 16 45 30 51 32 6 2 8 13 6 23 -3 18 -4 18 -10 -2z"/>
<path d="M1377 1512 c-10 -10 -17 -25 -17 -32 0 -21 51 -70 73 -70 16 0 13 6
-17 37 -39 40 -43 52 -24 71 7 7 10 12 7 12 -3 0 -13 -8 -22 -18z"/>
<path d="M1409 1503 c-13 -15 -12 -15 9 -4 23 12 28 21 13 21 -5 0 -15 -7 -22
-17z"/>
<path d="M1429 1483 c-13 -15 -12 -15 9 -4 23 12 28 21 13 21 -5 0 -15 -7 -22
-17z"/>
<path d="M1120 1480 c0 -5 5 -10 10 -10 6 0 10 5 10 10 0 6 -4 10 -10 10 -5 0
-10 -4 -10 -10z"/>
<path d="M1449 1463 c-13 -15 -12 -15 9 -4 23 12 28 21 13 21 -5 0 -15 -7 -22
-17z"/>
<path d="M914 1447 c-11 -7 -38 -26 -59 -44 -33 -28 -37 -34 -25 -48 21 -26
50 -38 63 -27 7 6 30 15 53 22 l40 12 -10 49 c-11 52 -23 59 -62 36z"/>
<path d="M1000 1435 c0 -33 27 -92 50 -108 29 -20 40 -53 40 -116 0 -70 8 -79
107 -112 35 -11 63 -25 63 -30 0 -5 11 -9 25 -9 54 0 8 59 -52 67 -23 3 -52
15 -64 26 -18 17 -21 28 -17 79 4 55 7 61 51 101 39 35 47 49 49 82 l3 40 -55
-2 c-81 -3 -80 -3 -142 3 -58 6 -58 6 -58 -21z m98 -22 c6 -20 -55 -16 -62 3
-5 12 1 15 26 12 17 -2 33 -9 36 -15z m120 5 c-5 -15 -58 -24 -58 -10 0 15 12
22 38 22 14 0 22 -5 20 -12z"/>
<path d="M1285 1448 c2 -7 1 -29 -3 -48 -8 -35 -8 -35 47 -57 55 -23 74 -21
100 10 10 12 6 19 -21 35 -18 12 -44 32 -57 46 -25 27 -74 36 -66 14z"/>
<path d="M1470 1445 c-11 -13 -10 -14 4 -9 9 3 16 10 16 15 0 13 -6 11 -20 -6z"/>
<path d="M947 1323 c-55 -16 -113 -68 -142 -128 -19 -42 -24 -103 -11 -167 8
-45 25 -51 20 -8 -2 16 2 35 9 42 7 7 16 21 20 31 4 10 17 17 31 17 22 0 26 6
32 45 9 63 24 66 24 6 0 -39 4 -51 15 -51 11 0 15 -12 15 -46 l0 -46 41 36
c22 20 51 42 64 48 22 10 22 12 9 44 -8 18 -14 48 -14 65 0 26 -2 29 -14 20
-11 -9 -19 -9 -34 0 -20 13 -20 13 -2 49 17 34 17 37 2 47 -12 7 -31 6 -65 -4z
m53 -169 c0 -14 -21 -19 -33 -7 -9 9 13 34 24 27 5 -3 9 -12 9 -20z"/>
<path d="M1230 1315 c-10 -12 -10 -21 1 -47 l13 -32 13 30 c6 16 12 37 13 47
0 21 -23 22 -40 2z"/>
<path d="M1296 1305 c-4 -11 -14 -35 -22 -53 -16 -38 -18 -52 -5 -52 13 0 44
84 38 106 -4 18 -4 18 -11 -1z"/>
<path d="M1334 1293 c-16 -49 -29 -78 -51 -110 -13 -20 -23 -36 -21 -37 2 -1
15 -9 29 -19 33 -20 39 -14 39 37 0 30 3 37 10 26 5 -8 10 -41 10 -72 l0 -58
39 0 c38 0 38 0 38 -40 0 -22 -5 -44 -11 -49 -7 -6 -40 -9 -74 -7 -66 3 -73
-1 -44 -27 52 -48 142 6 162 95 18 88 -3 171 -59 231 -39 42 -60 52 -67 30z"/>
<path d="M1030 1269 c-15 -28 -7 -34 14 -10 11 12 13 21 7 25 -5 4 -15 -3 -21
-15z"/>
<path d="M1186 1281 c-8 -13 5 -40 33 -65 31 -29 32 -16 1 33 -16 25 -30 39
-34 32z"/>
<path d="M1170 1212 c0 -36 16 -50 36 -30 12 12 11 17 -11 38 l-25 23 0 -31z"/>
<path d="M1221 1173 c-19 -21 -6 -28 19 -10 15 10 17 16 8 20 -7 2 -19 -2 -27
-10z"/>
<path d="M1065 1083 c-48 -25 -96 -75 -117 -121 -29 -63 -10 -72 23 -11 38 69
54 85 114 120 53 31 35 41 -20 12z"/>
<path d="M870 1080 c0 -5 5 -10 10 -10 6 0 10 5 10 10 0 6 -4 10 -10 10 -5 0
-10 -4 -10 -10z"/>
<path d="M1109 1059 c-67 -37 -98 -65 -115 -106 -25 -57 -14 -66 45 -37 29 14
34 14 56 0 14 -9 25 -22 25 -28 0 -6 10 -2 23 9 37 34 45 35 85 12 24 -14 45
-20 57 -15 17 6 17 8 -3 22 -32 22 -46 54 -47 103 0 41 -2 45 -36 56 -33 12
-40 11 -90 -16z m37 -70 c10 -17 -13 -36 -27 -22 -12 12 -4 33 11 33 5 0 12
-5 16 -11z"/>
<path d="M927 1062 c-11 -17 -16 -102 -5 -102 11 0 20 42 16 81 -2 23 -6 30
-11 21z"/>
<path d="M840 1040 c0 -5 14 -10 30 -10 17 0 30 5 30 10 0 6 -13 10 -30 10
-16 0 -30 -4 -30 -10z"/>
<path d="M1270 1030 c0 -6 7 -10 15 -10 8 0 15 2 15 4 0 2 -7 6 -15 10 -8 3
-15 1 -15 -4z"/>
<path d="M1328 1023 c7 -3 16 -2 19 1 4 3 -2 6 -13 5 -11 0 -14 -3 -6 -6z"/>
<path d="M840 1010 c0 -5 14 -10 30 -10 17 0 30 5 30 10 0 6 -13 10 -30 10
-16 0 -30 -4 -30 -10z"/>
<path d="M1256 1002 c-3 -6 -1 -14 5 -17 15 -10 25 3 12 16 -7 7 -13 7 -17 1z"/>
<path d="M1300 995 c0 -8 5 -15 10 -15 6 0 10 7 10 15 0 8 -4 15 -10 15 -5 0
-10 -7 -10 -15z"/>
<path d="M1345 999 c-10 -15 3 -25 16 -12 7 7 7 13 1 17 -6 3 -14 1 -17 -5z"/>
<path d="M1386 1003 c-11 -11 -6 -23 9 -23 8 0 15 4 15 9 0 13 -16 22 -24 14z"/>
<path d="M840 980 c0 -5 14 -10 30 -10 17 0 30 5 30 10 0 6 -13 10 -30 10 -16
0 -30 -4 -30 -10z"/>
<path d="M848 943 c12 -2 30 -2 40 0 9 3 -1 5 -23 4 -22 0 -30 -2 -17 -4z"/>
<path d="M1413 919 c-6 -6 -42 -22 -79 -35 -53 -19 -74 -22 -91 -14 -22 9 -23
7 -24 -28 0 -20 -2 -49 -3 -63 -1 -25 1 -26 36 -22 20 3 65 -2 100 -12 77 -20
111 -11 134 39 22 45 12 98 -23 126 -30 23 -35 24 -50 9z"/>
<path d="M781 901 c-23 -23 -36 -79 -26 -110 17 -53 57 -63 152 -35 52 15 78
15 113 0 12 -5 15 5 15 57 l0 64 -41 -5 c-23 -2 -51 1 -63 7 -18 10 -21 9 -21
-9 0 -29 -15 -25 -47 15 -32 40 -54 44 -82 16z"/>
<path d="M876 895 c4 -8 8 -15 10 -15 2 0 4 7 4 15 0 8 -4 15 -10 15 -5 0 -7
-7 -4 -15z"/>
<path d="M1056 903 c-11 -11 -6 -23 9 -23 8 0 15 4 15 9 0 13 -16 22 -24 14z"/>
<path d="M1180 896 c0 -9 5 -16 10 -16 6 0 10 4 10 9 0 6 -4 13 -10 16 -5 3
-10 -1 -10 -9z"/>
<path d="M1093 813 c-1 -46 1 -61 7 -48 11 26 12 86 2 103 -5 7 -9 -17 -9 -55z"/>
<path d="M1145 847 c-4 -18 -2 -49 3 -68 9 -31 10 -28 11 34 1 73 -5 86 -14
34z"/>
<path d="M1056 861 c-4 -5 -2 -12 3 -15 5 -4 12 -2 15 3 4 5 2 12 -3 15 -5 4
-12 2 -15 -3z"/>
<path d="M1180 855 c0 -8 5 -15 10 -15 6 0 10 7 10 15 0 8 -4 15 -10 15 -5 0
-10 -7 -10 -15z"/>
<path d="M1055 821 c-6 -11 9 -23 19 -14 9 9 7 23 -3 23 -6 0 -12 -4 -16 -9z"/>
<path d="M1180 815 c0 -8 5 -15 10 -15 6 0 10 7 10 15 0 8 -4 15 -10 15 -5 0
-10 -7 -10 -15z"/>
<path d="M1052 779 c2 -6 8 -10 13 -10 5 0 11 4 13 10 2 6 -4 11 -13 11 -9 0
-15 -5 -13 -11z"/>
<path d="M1180 774 c0 -8 5 -12 10 -9 6 3 10 10 10 16 0 5 -4 9 -10 9 -5 0
-10 -7 -10 -16z"/>
<path d="M1050 740 c0 -5 7 -10 15 -10 8 0 15 5 15 10 0 6 -7 10 -15 10 -8 0
-15 -4 -15 -10z"/>
<path d="M1180 740 c0 -5 5 -10 10 -10 6 0 10 5 10 10 0 6 -4 10 -10 10 -5 0
-10 -4 -10 -10z"/>
<path d="M781 648 c13 -23 32 -27 174 -30 91 -2 127 -7 146 -19 22 -15 26 -15
48 -1 17 12 61 17 167 21 113 5 147 9 154 21 5 8 10 17 10 20 0 11 -329 -5
-341 -17 -9 -9 -17 -9 -33 2 -15 10 -66 15 -178 17 -146 3 -155 2 -147 -14z"/>
<path d="M406 1801 c-29 -30 -44 -51 -37 -55 6 -4 11 -1 11 7 0 8 6 19 13 25
10 9 24 0 60 -36 26 -27 46 -50 45 -53 -2 -2 4 2 12 10 13 13 9 20 -35 62 -42
41 -47 49 -36 63 7 9 18 13 24 9 6 -3 7 -1 3 5 -4 7 -8 12 -9 12 -2 0 -24 -22
-51 -49z"/>
<path d="M1835 1747 c-16 -17 -42 -37 -57 -46 l-27 -17 30 -32 c17 -18 38 -32
48 -32 24 0 45 26 37 45 -4 11 0 16 12 14 51 -5 57 20 15 67 l-28 31 -30 -30z
m65 -33 c0 -17 -31 -26 -46 -13 -10 8 -13 5 -11 -16 3 -36 -26 -56 -48 -34
-14 14 -11 19 37 57 51 39 67 41 68 6z"/>
<path d="M285 1645 c-8 -14 -22 -36 -30 -50 -18 -29 -19 -45 -4 -45 5 0 7 5 4
10 -4 6 -1 17 5 25 10 13 19 11 59 -12 25 -14 51 -32 57 -39 9 -11 13 -8 23
12 6 14 7 23 3 20 -4 -3 -34 10 -66 28 l-59 33 22 22 c11 11 17 21 11 21 -5 0
-16 -11 -25 -25z"/>
<path d="M1957 1582 c8 -5 6 -13 -7 -30 -22 -26 -26 -27 -34 -5 -4 9 -1 20 6
25 8 5 -5 8 -33 6 -37 -1 -46 -5 -41 -17 4 -10 7 -11 10 -3 7 21 38 13 51 -14
12 -27 -1 -60 -20 -48 -5 3 -4 -6 2 -20 l12 -25 48 61 c27 33 49 64 49 69 0 5
-12 9 -27 9 -16 0 -23 -3 -16 -8z"/>
<path d="M207 1501 c-3 -12 -1 -18 4 -15 14 8 106 -25 112 -41 8 -20 -3 -53
-21 -60 -20 -7 -112 23 -113 38 0 7 -4 3 -9 -8 -12 -28 -12 -32 3 -32 6 0 34
-7 60 -14 55 -15 77 -7 92 35 13 38 -2 57 -61 79 -27 10 -51 23 -55 29 -3 5
-9 0 -12 -11z"/>
<path d="M2047 1457 c-4 -10 -14 -17 -24 -17 -12 0 -14 -3 -6 -8 9 -5 0 -25
-29 -70 -22 -34 -39 -65 -36 -67 2 -3 24 2 49 10 24 8 31 12 15 9 l-29 -5 18
28 c10 15 28 42 41 60 18 24 22 37 16 54 -7 19 -10 20 -15 6z"/>
<path d="M1916 1412 c5 -18 8 -19 32 -6 15 8 33 14 41 14 8 0 12 3 8 6 -3 4
-19 2 -35 -4 -21 -7 -33 -7 -40 0 -8 8 -9 5 -6 -10z"/>
<path d="M2065 1329 c-19 -9 -19 -9 2 -5 12 2 24 -1 27 -8 3 -8 5 -8 5 1 1 17
-11 22 -34 12z"/>
<path d="M150 1303 c0 -16 -3 -45 -6 -65 -4 -23 -3 -38 3 -38 6 0 8 12 5 26
l-5 27 64 -7 c35 -4 67 -13 71 -19 5 -7 8 -4 8 10 0 18 -7 23 -37 28 -87 14
-93 17 -93 35 0 10 8 21 18 23 13 4 11 5 -5 6 -19 1 -23 -4 -23 -26z"/>
<path d="M2092 1255 c-8 -10 -33 -15 -72 -15 l-60 0 1 -32 c1 -18 3 -26 6 -17
6 22 122 37 134 17 6 -8 9 1 9 25 0 42 0 42 -18 22z"/>
<path d="M1970 1158 c0 -9 12 -26 26 -37 47 -37 114 -22 114 27 l0 26 -16 -22
c-11 -16 -25 -22 -54 -22 -29 0 -43 6 -54 22 -13 18 -16 19 -16 6z"/>
<path d="M136 1134 c-3 -9 -6 -16 -6 -17 0 -1 34 -2 75 -2 65 0 75 2 75 18 0
14 -10 17 -69 17 -54 0 -70 -4 -75 -16z"/>
<path d="M140 1029 l0 -42 46 7 c26 3 60 6 75 6 25 0 29 4 29 28 0 17 -3 22
-8 15 -5 -7 -37 -16 -72 -20 l-63 -6 5 26 c3 15 1 27 -3 27 -5 0 -9 -19 -9
-41z"/>
<path d="M1966 1028 c-26 -37 -14 -98 20 -98 12 0 10 5 -7 19 -21 17 -22 21
-11 46 12 26 15 27 65 21 28 -4 57 -12 64 -18 10 -8 13 -6 13 10 0 15 -9 21
-37 26 -21 4 -50 9 -65 12 -19 4 -30 0 -42 -18z"/>
<path d="M150 960 c0 -11 4 -20 9 -20 5 0 7 9 4 20 -3 11 -7 20 -9 20 -2 0 -4
-9 -4 -20z"/>
<path d="M2023 923 c9 -2 23 -2 30 0 6 3 -1 5 -18 5 -16 0 -22 -2 -12 -5z"/>
<path d="M236 904 c-3 -9 -6 -29 -6 -44 0 -16 -5 -32 -10 -35 -18 -11 -42 17
-37 42 2 13 0 23 -4 23 -14 0 -11 -44 4 -64 9 -12 23 -17 42 -14 27 3 30 7 33
46 3 37 6 42 27 42 18 0 26 -7 31 -24 3 -14 3 -30 -1 -35 -3 -6 -1 -11 4 -11
16 0 13 42 -5 68 -18 26 -69 30 -78 6z"/>
<path d="M2075 910 c3 -5 8 -10 11 -10 2 0 4 5 4 10 0 6 -5 10 -11 10 -5 0 -7
-4 -4 -10z"/>
<path d="M1930 881 c0 -8 41 -23 47 -17 2 1 -8 8 -22 14 -14 6 -25 8 -25 3z"/>
<path d="M2014 846 l29 -13 -69 -23 c-94 -31 -103 -40 -55 -55 15 -4 21 -3 17
3 -3 5 25 19 63 32 43 13 71 28 73 38 3 12 -2 17 -16 17 -12 1 -32 4 -46 8
-20 6 -20 4 4 -7z"/>
<path d="M280 761 c-30 -16 -58 -27 -62 -24 -4 2 -5 -3 -1 -12 3 -9 9 -12 12
-7 7 11 91 55 91 47 0 -2 -11 -30 -25 -61 -24 -54 -31 -84 -20 -84 3 0 32 13
64 30 32 16 61 27 64 24 3 -3 3 5 -1 18 -4 15 -7 18 -9 7 -3 -13 -93 -66 -93
-54 0 2 11 30 25 61 25 57 31 84 18 84 -5 -1 -33 -14 -63 -29z"/>
<path d="M1950 747 c3 -3 22 -12 42 -20 27 -11 38 -12 41 -4 2 7 -5 12 -17 12
-11 1 -32 5 -46 9 -14 5 -23 6 -20 3z"/>
<path d="M1840 680 c-12 -12 -25 -33 -31 -47 -8 -21 -6 -29 10 -44 19 -18 20
-17 36 9 10 15 12 21 5 15 -10 -9 -17 -10 -27 -2 -18 16 -16 33 5 52 27 25 60
21 92 -12 33 -33 31 -61 -7 -90 -13 -11 -20 -22 -15 -25 18 -11 62 56 62 94 0
11 -11 32 -25 45 -30 31 -77 33 -105 5z"/>
<path d="M385 599 c-27 -22 -56 -37 -63 -34 -9 3 -10 0 -2 -15 12 -22 30 -35
30 -21 0 12 89 77 101 74 13 -4 11 13 -3 24 -9 7 -28 -1 -63 -28z"/>
<path d="M520 439 c-14 -26 3 -49 35 -49 27 0 39 24 25 51 -14 25 -46 24 -60
-2z"/>
<path d="M1670 441 c-14 -27 -2 -51 25 -51 32 0 49 23 35 49 -14 26 -46 27
-60 2z"/>
<path d="M1379 289 c22 -24 42 -94 34 -117 -4 -10 -2 -13 5 -8 24 15 8 120
-21 138 -26 16 -38 8 -18 -13z"/>
<path d="M857 293 c21 -4 21 -5 6 -56 -8 -29 -20 -58 -25 -64 -8 -10 -6 -13 5
-13 8 0 24 -3 34 -6 14 -4 15 -4 4 4 -11 8 -11 18 4 63 9 30 18 60 20 67 3 8
-7 12 -33 11 -22 -1 -28 -3 -15 -6z"/>
<path d="M1337 293 c-21 -20 4 -117 33 -133 29 -15 35 -12 16 9 -20 22 -45
100 -39 119 5 13 0 16 -10 5z"/>
<path d="M1006 258 c-9 -12 -16 -28 -16 -35 0 -19 29 -43 46 -36 13 5 12 7 -2
17 -20 15 -15 60 9 64 26 5 24 -91 -3 -118 -11 -11 -15 -20 -10 -20 20 0 49
39 56 75 11 63 -47 101 -80 53z"/>
<path d="M1188 273 c-10 -2 -18 -11 -18 -20 0 -13 3 -13 16 -3 12 11 18 11 31
-2 19 -19 11 -47 -24 -88 -14 -17 -24 -32 -22 -35 8 -7 99 8 99 16 0 5 -16 9
-36 9 l-35 0 25 33 c31 40 33 72 7 87 -11 5 -21 9 -23 9 -2 -1 -11 -3 -20 -6z"/>
</g>
</svg>
