<?xml version="1.0" standalone="no"?>
<!DOCTYPE svg PUBLIC "-//W3C//DTD SVG 20010904//EN"
 "http://www.w3.org/TR/2001/REC-SVG-20010904/DTD/svg10.dtd">
<svg version="1.0" xmlns="http://www.w3.org/2000/svg"
 width="225.000000pt" height="225.000000pt" viewBox="0 0 225.000000 225.000000"
 preserveAspectRatio="xMidYMid meet">

<g transform="translate(0.000000,225.000000) scale(0.100000,-0.100000)"
fill="#000000" stroke="none">
<path d="M970 2239 c-229 -30 -471 -151 -640 -321 -342 -344 -425 -859 -210
-1293 341 -687 1256 -836 1799 -294 484 484 426 1284 -124 1696 -229 172 -533
250 -825 212z m425 -59 c198 -54 345 -139 491 -284 153 -151 240 -301 296
-506 20 -74 23 -108 23 -265 0 -165 -2 -188 -27 -278 -56 -199 -141 -343 -292
-493 -204 -203 -424 -300 -707 -311 -209 -9 -376 25 -541 108 -218 110 -416
319 -510 539 -69 162 -83 232 -83 435 0 157 3 191 23 265 52 188 135 339 263
475 170 179 363 286 594 331 108 21 368 12 470 -16z"/>
<path d="M1050 2101 c0 -35 -4 -51 -16 -55 -20 -8 -54 10 -54 29 0 7 -2 20 -5
27 -4 9 5 18 22 25 26 10 25 11 -22 12 -27 0 -57 -4 -65 -9 -12 -8 -9 -10 13
-10 24 0 27 -4 27 -35 0 -28 -5 -38 -25 -47 -14 -6 -25 -15 -25 -20 0 -13 24
-9 49 8 17 12 26 13 34 5 6 -6 26 -11 44 -11 29 0 33 -3 33 -25 0 -14 6 -25
13 -25 10 0 11 15 6 68 -5 37 -8 77 -8 90 -2 45 -21 20 -21 -27z"/>
<path d="M1200 2140 c0 -5 12 -10 28 -10 15 0 34 -5 42 -10 13 -8 13 -13 0
-37 -12 -22 -24 -29 -53 -31 -20 -2 -37 -7 -37 -13 0 -11 70 -12 86 -1 17 11
34 48 34 75 0 20 -6 25 -37 31 -52 8 -63 8 -63 -4z"/>
<path d="M1346 2119 c-8 -27 -26 -133 -26 -156 0 -13 4 -23 8 -23 13 0 42 173
31 184 -5 6 -10 4 -13 -5z"/>
<path d="M743 2083 c-17 -6 -17 -26 -1 -21 8 3 25 -23 43 -65 17 -39 36 -72
43 -75 19 -6 15 9 -23 92 -34 75 -38 79 -62 69z"/>
<path d="M1470 2042 c0 -11 46 -32 70 -32 11 0 20 -4 20 -10 0 -15 58 -42 65
-30 3 6 1 10 -4 10 -19 0 -51 39 -45 55 7 18 -17 20 -34 3 -9 -9 -18 -9 -37 0
-31 14 -35 15 -35 4z"/>
<path d="M632 1979 c12 -28 27 -53 33 -55 15 -6 105 33 105 45 0 6 -21 1 -46
-10 -26 -11 -48 -18 -48 -17 -1 2 -10 22 -21 46 -10 23 -24 42 -31 42 -9 0 -7
-14 8 -51z"/>
<path d="M1460 2010 c0 -5 12 -16 28 -24 15 -8 23 -15 19 -16 -5 0 -17 5 -28
11 -11 6 -25 8 -32 6 -7 -2 20 -20 58 -40 39 -20 64 -36 57 -37 -7 0 -39 13
-71 30 -50 25 -60 27 -65 14 -3 -9 -6 -20 -6 -25 0 -11 140 -82 148 -75 7 8 6
9 -67 45 -34 18 -61 35 -58 37 3 3 33 -9 68 -26 60 -31 63 -31 76 -14 15 20
16 17 -34 52 -10 7 -4 5 14 -3 37 -17 43 -18 43 -7 0 4 -21 19 -47 32 -81 41
-103 49 -103 40z"/>
<path d="M497 1943 c-6 -10 94 -135 114 -141 5 -2 9 2 9 10 -1 20 -116 142
-123 131z"/>
<path d="M1722 1914 c-39 -27 -23 -84 23 -84 25 0 55 29 55 52 0 16 -30 48
-46 48 -5 0 -20 -7 -32 -16z m48 -34 c0 -24 -26 -38 -42 -22 -8 8 -8 15 2 27
18 21 40 19 40 -5z"/>
<path d="M455 1911 c-3 -5 -1 -12 5 -16 5 -3 10 -3 10 0 0 4 24 -21 53 -54 45
-52 77 -75 77 -55 0 3 -26 34 -57 70 -54 62 -75 75 -88 55z"/>
<path d="M954 1885 c-298 -65 -542 -320 -595 -620 -19 -109 -7 -283 25 -380
83 -246 272 -431 516 -507 64 -20 96 -23 225 -23 138 0 157 2 238 29 241 79
421 258 503 501 39 115 46 304 15 424 -71 282 -287 500 -566 571 -92 24 -265
26 -361 5z m361 -40 c257 -69 460 -274 532 -537 27 -96 24 -291 -5 -384 -63
-205 -206 -377 -387 -467 -246 -122 -549 -94 -773 73 -361 268 -403 794 -88
1115 104 106 233 176 386 210 81 18 250 13 335 -10z"/>
<path d="M1609 1456 c-16 -21 -23 -21 -384 -26 l-367 -5 -24 -28 c-22 -26 -54
-113 -54 -146 1 -12 3 -11 12 4 24 45 24 45 403 45 415 0 391 -5 420 95 20 67
17 92 -6 61z"/>
<path d="M566 1186 c3 -7 -1 -39 -9 -70 -14 -54 -14 -56 4 -56 10 0 18 3 18 8
-1 4 -1 18 0 32 1 29 21 14 24 -19 1 -13 8 -21 19 -21 16 0 16 3 2 42 -14 41
-14 42 13 70 22 23 24 28 9 28 -9 0 -15 -4 -12 -9 3 -4 -6 -19 -19 -31 -28
-26 -30 -24 -15 14 9 24 7 26 -15 26 -17 0 -23 -4 -19 -14z"/>
<path d="M686 1183 c3 -10 -2 -42 -9 -70 -14 -51 -13 -53 6 -53 11 0 18 3 15
6 -4 3 2 35 12 70 l17 64 -22 0 c-17 0 -22 -5 -19 -17z"/>
<path d="M756 1194 c11 -5 -4 -97 -21 -123 -4 -7 3 -11 18 -11 20 0 23 4 20
23 -2 12 1 28 6 36 8 12 12 12 25 2 14 -12 16 -10 16 7 0 15 -5 19 -19 15 -15
-4 -18 0 -14 21 6 30 37 35 52 9 9 -16 10 -16 11 5 0 20 -4 22 -52 21 -29 0
-48 -3 -42 -5z"/>
<path d="M884 1191 c8 -12 -12 -100 -27 -118 -7 -10 -3 -13 16 -13 18 0 25 4
21 13 -2 7 -1 24 5 38 9 23 9 23 18 -11 5 -19 17 -36 25 -38 15 -3 15 1 5 27
-9 25 -8 33 7 50 30 33 17 56 -33 59 -27 2 -41 0 -37 -7z m54 -23 c-4 -27 -28
-36 -28 -10 0 20 8 32 22 32 5 0 8 -10 6 -22z"/>
<path d="M1037 1193 c-3 -5 -12 -34 -20 -66 l-15 -57 186 2 186 3 13 50 c7 28
13 56 13 63 0 9 -42 12 -179 12 -99 0 -182 -3 -184 -7z"/>
<path d="M830 1093 c0 -5 -10 -15 -22 -21 -23 -11 -23 -11 -2 -11 20 -1 41 25
29 37 -3 3 -5 1 -5 -5z"/>
<path d="M721 980 c-17 -78 -14 -108 14 -135 l24 -25 346 0 345 0 18 -30 19
-30 11 51 c15 66 15 101 -1 123 -12 17 -37 18 -356 17 -296 -2 -346 0 -367 14
-13 8 -24 24 -24 35 0 41 -19 28 -29 -20z"/>
<path d="M400 1861 c-15 -28 -12 -46 8 -64 35 -32 82 -15 82 28 0 47 -69 74
-90 36z m60 -16 c15 -18 6 -45 -13 -45 -20 0 -40 27 -33 45 7 19 30 19 46 0z"/>
<path d="M1834 1838 c7 -30 -2 -36 -23 -15 -11 10 -13 8 -8 -12 3 -14 1 -31
-5 -38 -6 -8 -8 -17 -4 -20 4 -4 23 10 44 30 l37 37 -24 22 -23 23 6 -27z"/>
<path d="M1645 1830 c-19 -21 -18 -22 43 -82 34 -34 65 -59 69 -55 4 4 -17 31
-45 60 -41 41 -50 55 -40 65 8 8 9 15 2 22 -7 7 -16 4 -29 -10z"/>
<path d="M255 1675 c-41 -64 -51 -85 -38 -85 5 0 24 25 42 55 35 58 41 61 72
45 26 -14 24 -23 -16 -83 -19 -28 -35 -55 -35 -59 0 -18 17 -6 35 24 10 18 20
27 23 20 2 -6 -4 -22 -12 -34 -17 -24 -20 -38 -8 -38 4 0 24 27 45 60 33 50
42 58 57 50 17 -9 30 -4 30 10 0 4 -11 12 -25 18 -22 10 -27 9 -41 -13 -23
-35 -38 -31 -19 5 8 16 15 31 15 34 0 6 -69 46 -81 46 -5 0 -25 -25 -44 -55z"/>
<path d="M1950 1710 c0 -5 15 -35 34 -67 l34 -58 -29 -18 c-16 -11 -27 -23
-24 -28 7 -10 75 21 75 35 0 11 -79 146 -85 146 -3 0 -5 -4 -5 -10z"/>
<path d="M1860 1655 c0 -4 7 -19 15 -36 15 -28 15 -30 -10 -41 -14 -6 -25 -14
-25 -18 0 -17 14 -18 38 -2 19 12 27 13 30 4 6 -20 41 -58 42 -46 0 16 -73
144 -82 144 -5 0 -8 -2 -8 -5z"/>
<path d="M144 1445 c-9 -22 4 -32 52 -40 52 -8 70 11 19 21 -20 3 -43 13 -51
21 -12 13 -15 12 -20 -2z"/>
<path d="M2006 1405 c4 -15 2 -25 -5 -25 -6 0 -11 -4 -11 -10 0 -5 6 -10 14
-10 7 0 16 -10 19 -22 4 -12 9 -20 12 -17 8 9 -15 109 -26 109 -5 0 -7 -11 -3
-25z"/>
<path d="M2050 1415 c-26 -32 13 -81 48 -59 34 22 22 74 -18 74 -10 0 -23 -7
-30 -15z m50 -19 c0 -20 -19 -31 -32 -18 -6 6 -7 15 -4 21 10 16 36 13 36 -3z"/>
<path d="M1943 1410 c-13 -5 -23 -11 -23 -12 1 -14 40 -151 44 -156 14 -13 14
8 1 58 -19 70 -19 90 0 90 8 0 15 7 15 15 0 17 -5 18 -37 5z"/>
<path d="M306 1399 c-3 -8 -11 -39 -19 -69 -10 -44 -18 -56 -35 -58 -12 -2
-22 -7 -22 -12 0 -11 37 -23 49 -15 12 7 46 154 37 162 -3 3 -8 0 -10 -8z"/>
<path d="M120 1357 c-8 -12 -14 -34 -12 -48 3 -22 8 -26 39 -27 44 -2 63 12
63 45 0 18 -9 28 -35 39 -42 17 -37 18 -55 -9z m68 -36 c-2 -9 -11 -17 -21
-19 -21 -4 -35 27 -17 38 19 12 42 0 38 -19z"/>
<path d="M2110 1316 c0 -8 -16 -18 -37 -23 -20 -4 -38 -14 -41 -21 -5 -15 11
-15 61 -1 30 8 37 15 37 34 0 14 -4 25 -10 25 -5 0 -10 -6 -10 -14z"/>
<path d="M162 1158 c-16 -16 -15 -53 3 -68 19 -16 45 -10 61 15 26 39 -31 86
-64 53z"/>
<path d="M2032 1158 c-27 -27 -7 -78 29 -78 21 0 49 26 49 45 0 35 -53 58 -78
33z"/>
<path d="M197 1015 c-74 -13 -108 -32 -39 -21 27 4 42 2 42 -4 0 -6 -19 -20
-42 -31 l-43 -19 39 4 c21 3 47 13 57 22 12 11 27 14 48 9 20 -4 31 -3 31 4 0
6 -9 11 -19 11 -11 0 -23 5 -26 10 -3 6 3 10 14 10 12 0 21 5 21 10 0 6 -3 9
-7 9 -5 -1 -39 -7 -76 -14z"/>
<path d="M1970 1021 c0 -6 14 -11 30 -11 24 0 30 -4 30 -21 0 -18 -5 -21 -35
-17 -38 4 -49 -9 -12 -16 130 -28 147 -30 147 -17 0 5 -18 11 -41 15 -32 5
-40 10 -35 22 3 9 6 18 6 20 0 2 18 1 40 -2 24 -4 40 -3 40 3 0 6 -19 13 -42
16 -24 3 -62 9 -85 13 -29 4 -43 3 -43 -5z"/>
<path d="M197 938 c-41 -11 -71 -46 -61 -71 13 -35 113 -29 155 9 25 22 24 39
-3 58 -25 18 -37 18 -91 4z m80 -24 c9 -25 -20 -45 -68 -47 -38 -2 -44 1 -44
18 0 34 100 60 112 29z"/>
<path d="M1945 930 c-12 -19 6 -48 39 -64 40 -19 107 -21 124 -4 17 17 15 45
-4 52 -22 8 -22 9 -16 -19 4 -23 2 -25 -35 -25 -58 0 -111 47 -70 63 6 3 2 6
-10 6 -12 1 -25 -4 -28 -9z"/>
<path d="M233 833 c-71 -26 -101 -50 -45 -37 27 7 27 7 8 -15 -20 -22 -14 -43
6 -23 7 7 28 12 48 12 48 0 82 25 78 58 -2 14 -7 27 -13 28 -5 1 -43 -9 -82
-23z m77 -6 c0 -21 -22 -37 -52 -37 -38 0 -35 18 5 35 40 18 47 18 47 2z"/>
<path d="M1924 835 c-9 -14 -15 -27 -13 -29 14 -11 161 -58 166 -52 4 4 -3 9
-15 13 -30 7 -28 23 3 23 14 0 25 5 25 10 0 6 -11 10 -25 10 -14 0 -28 6 -31
14 -6 14 -54 36 -80 36 -8 0 -21 -11 -30 -25z m77 -14 c32 -25 19 -36 -25 -21
-35 11 -43 20 -29 33 11 12 30 8 54 -12z"/>
<path d="M275 753 c-38 -20 -72 -37 -73 -38 -9 -8 11 -45 24 -45 11 0 13 6 9
19 -7 25 30 50 48 32 17 -17 29 -13 22 9 -9 27 21 39 39 15 17 -24 28 -6 13
22 -12 21 -12 21 -82 -14z"/>
<path d="M1885 770 c-15 -25 9 -52 73 -80 36 -17 71 -29 76 -26 6 2 -8 12 -31
22 -46 20 -47 22 -34 42 7 11 15 11 46 -2 21 -9 40 -14 43 -11 7 7 5 9 -62 39
-61 27 -100 33 -111 16z m63 -27 c-2 -10 -10 -18 -18 -18 -8 0 -16 8 -18 18
-2 12 3 17 18 17 15 0 20 -5 18 -17z"/>
<path d="M300 685 c-30 -19 -59 -36 -65 -38 -5 -3 -7 -8 -3 -12 4 -4 22 2 41
14 26 16 36 18 45 9 18 -18 15 -22 -23 -42 -19 -11 -35 -23 -35 -28 0 -13 12
-8 75 31 61 38 82 74 53 92 -21 13 -29 11 -88 -26z m76 4 c3 -6 0 -17 -8 -25
-13 -13 -16 -13 -28 1 -12 14 -11 18 1 26 19 12 26 11 35 -2z"/>
<path d="M1862 708 c-22 -22 -12 -37 56 -77 l67 -40 18 21 c12 15 15 24 7 32
-7 7 -14 4 -23 -8 -12 -16 -16 -17 -35 -5 -14 9 -20 20 -17 31 7 21 -11 33
-19 13 -9 -25 -38 -6 -32 21 7 26 -3 31 -22 12z"/>
<path d="M1813 635 c-3 -9 3 -25 13 -36 15 -17 27 -20 61 -15 28 4 45 1 53 -8
14 -18 -2 -30 -30 -21 -11 4 -20 2 -20 -4 0 -13 45 -25 65 -17 22 8 18 32 -7
56 -16 15 -33 20 -63 18 -22 -2 -40 2 -40 7 0 6 5 11 10 11 6 1 15 2 20 3 16
2 -18 21 -38 21 -10 0 -20 -7 -24 -15z"/>
<path d="M380 569 c-61 -47 -81 -69 -64 -69 15 0 143 104 138 112 -7 10 1 15
-74 -43z"/>
<path d="M1776 581 c-16 -18 -14 -21 45 -70 63 -53 75 -57 93 -28 13 21 1 33
-18 18 -11 -9 -20 -10 -35 -1 -24 12 -26 21 -10 37 8 8 7 13 -1 18 -7 4 -16 2
-20 -6 -7 -10 -11 -10 -25 1 -11 9 -13 16 -5 24 5 5 10 14 10 18 0 14 -16 9
-34 -11z"/>
<path d="M400 529 c-36 -33 -58 -59 -49 -59 8 0 28 13 44 30 16 16 30 28 33
26 2 -3 -8 -25 -23 -51 -45 -75 -23 -69 77 20 52 47 42 57 -14 14 l-42 -34 27
49 c15 27 24 53 20 57 -5 4 -37 -19 -73 -52z"/>
<path d="M1724 526 c-18 -14 -16 -17 41 -75 33 -34 64 -61 69 -61 5 0 1 10
-10 22 l-19 21 33 -6 c35 -7 45 8 12 18 -11 3 -20 13 -20 21 0 19 -54 74 -72
74 -8 0 -23 -6 -34 -14z m76 -46 c16 -31 -9 -36 -37 -7 -29 28 -24 53 7 37 11
-6 24 -19 30 -30z"/>
<path d="M506 494 c-17 -16 -18 -21 -20 -69 -1 -20 -7 -31 -20 -33 -16 -3 -18
0 -12 22 8 33 -7 34 -22 1 -15 -33 -15 -32 7 -44 31 -17 69 20 73 71 2 24 9
43 17 46 10 3 12 -2 7 -22 -4 -15 -2 -26 4 -26 12 0 24 45 15 59 -9 16 -31 13
-49 -5z"/>
<path d="M575 450 c4 -14 -4 -33 -28 -62 -43 -54 -51 -68 -38 -68 6 0 29 25
52 55 32 42 45 53 54 45 9 -8 15 -8 20 0 7 12 -33 49 -53 50 -9 0 -11 -7 -7
-20z"/>
<path d="M1657 464 c-3 -3 -2 -17 4 -31 13 -34 12 -35 -16 -17 -13 9 -30 14
-36 12 -7 -2 4 -14 24 -26 19 -13 50 -39 67 -58 39 -45 49 -38 17 13 -14 21
-30 55 -37 76 -12 39 -13 40 -23 31z"/>
<path d="M605 350 c-27 -39 -45 -73 -42 -77 4 -3 8 -4 10 -2 41 53 94 140 88
143 -5 3 -30 -26 -56 -64z"/>
<path d="M1554 385 c-8 -32 32 -104 68 -125 57 -31 82 26 40 91 l-19 30 -24
-20 c-13 -10 -21 -23 -17 -27 4 -4 14 -2 21 4 18 15 37 -3 37 -35 0 -38 -36
-29 -66 17 -27 41 -27 70 1 70 9 0 13 5 10 10 -12 20 -45 10 -51 -15z"/>
<path d="M675 391 c-3 -5 -1 -13 5 -16 7 -4 -2 -30 -24 -69 -47 -84 -33 -94
16 -11 27 44 43 62 53 59 24 -10 17 12 -10 30 -28 19 -32 19 -40 7z"/>
<path d="M1486 357 c-17 -12 -16 -17 14 -85 18 -40 37 -72 42 -72 5 0 6 9 3
20 -7 22 5 26 23 8 17 -17 27 -1 11 18 -8 10 -13 25 -11 34 3 17 -36 81 -53
87 -6 2 -19 -3 -29 -10z m52 -42 c11 -24 7 -55 -7 -55 -7 0 -41 64 -41 75 0 3
8 5 18 5 11 0 24 -11 30 -25z"/>
<path d="M727 296 c-34 -75 -33 -101 3 -101 21 0 30 11 57 65 34 71 37 80 25
80 -5 0 -21 -29 -37 -65 -15 -36 -33 -65 -41 -65 -20 0 -17 20 11 84 27 62 29
66 18 66 -5 0 -21 -29 -36 -64z"/>
<path d="M1417 333 c-13 -3 -16 -10 -12 -21 4 -10 16 -42 27 -72 25 -68 31
-74 57 -65 30 9 27 33 -3 28 -18 -4 -25 1 -29 19 -4 15 -1 27 8 34 22 16 18
27 -6 21 -26 -7 -38 21 -16 38 30 22 19 30 -26 18z"/>
<path d="M830 316 c0 -8 5 -16 12 -18 9 -3 6 -20 -10 -62 -22 -58 -29 -96 -14
-82 4 4 16 35 28 69 15 44 26 62 38 61 28 -3 17 24 -15 35 -40 14 -39 14 -39
-3z"/>
<path d="M1374 295 c19 -80 19 -82 -11 -38 -26 40 -62 60 -50 29 3 -7 15 -46
27 -85 11 -39 25 -69 30 -66 5 3 3 24 -6 47 -22 63 -17 67 17 16 33 -51 56
-63 45 -25 -3 12 -13 50 -22 85 -9 34 -21 62 -26 62 -6 0 -7 -11 -4 -25z"/>
<path d="M897 224 c-9 -42 -14 -80 -11 -85 7 -12 41 -11 49 1 3 6 -1 10 -9 10
-20 0 -26 12 -19 38 3 13 13 22 24 22 23 0 25 16 2 28 -24 14 -10 42 18 35 16
-4 20 -2 17 8 -2 8 -16 15 -29 17 -24 3 -26 -2 -42 -74z"/>
<path d="M1243 273 c3 -10 8 -36 11 -58 15 -91 16 -95 42 -95 15 0 24 6 24 15
0 8 -8 15 -19 15 -27 0 -36 51 -10 57 25 7 25 23 0 23 -27 0 -36 30 -11 37 31
8 24 23 -11 23 -24 0 -29 -4 -26 -17z"/>
<path d="M1038 263 c-21 -25 -29 -74 -17 -116 12 -46 34 -53 65 -22 19 19 24
34 24 78 0 29 -5 58 -12 65 -17 17 -42 15 -60 -5z m50 -51 c5 -72 -39 -116
-53 -52 -7 31 0 66 18 88 17 22 32 7 35 -36z"/>
<path d="M1130 195 c0 -56 4 -85 11 -85 7 0 10 14 7 36 -3 29 -1 38 14 42 24
6 23 18 -2 25 -11 3 -20 12 -20 20 0 16 27 30 41 21 5 -3 9 2 9 10 0 11 -9 16
-30 16 l-30 0 0 -85z"/>
</g>
</svg>
