<?xml version="1.0" standalone="no"?>
<!DOCTYPE svg PUBLIC "-//W3C//DTD SVG 20010904//EN"
 "http://www.w3.org/TR/2001/REC-SVG-20010904/DTD/svg10.dtd">
<svg version="1.0" xmlns="http://www.w3.org/2000/svg"
 width="80.000000pt" height="80.000000pt" viewBox="0 0 80.000000 80.000000"
 preserveAspectRatio="xMidYMid meet">

<g transform="translate(0.000000,80.000000) scale(0.100000,-0.100000)"
fill="#000000" stroke="none">
<path d="M377 579 c-9 -6 -15 -15 -11 -21 4 -6 9 -5 15 3 7 11 14 11 41 2 l33
-12 -24 19 c-27 23 -29 23 -54 9z"/>
<path d="M475 551 c-7 -22 -33 -25 -47 -6 -5 6 -8 4 -8 -5 -1 -11 -4 -10 -15
4 -12 16 -15 17 -15 4 0 -11 -8 -14 -29 -12 -29 3 -81 -27 -81 -47 0 -5 9 0
20 11 23 23 40 26 40 8 0 -8 5 -6 10 3 7 12 21 16 47 14 42 -2 54 -23 28 -45
-8 -7 -15 -20 -15 -28 0 -13 4 -11 15 5 13 19 20 21 42 12 14 -5 28 -7 31 -5
2 3 -7 8 -22 12 -17 4 -26 13 -26 25 0 23 17 25 40 4 15 -14 18 -14 30 0 11
14 10 20 -12 42 -26 25 -26 25 -33 4z m38 -38 c-5 -13 -7 -13 -21 0 -8 8 -11
20 -7 27 10 16 35 -7 28 -27z"/>
<path d="M280 543 c0 -10 4 -14 8 -8 4 6 11 13 16 18 5 4 2 7 -7 7 -10 0 -17
-8 -17 -17z"/>
<path d="M346 482 c6 -4 16 -16 22 -27 8 -15 11 -16 12 -4 0 17 -19 39 -34 39
-8 0 -7 -3 0 -8z"/>
<path d="M291 454 c-12 -15 -21 -32 -21 -38 0 -6 9 3 19 20 11 18 25 34 33 37
8 3 9 6 1 6 -6 1 -21 -11 -32 -25z"/>
<path d="M410 416 c0 -2 7 -7 16 -10 8 -3 12 -2 9 4 -6 10 -25 14 -25 6z"/>
<path d="M387 399 c7 -7 15 -10 18 -7 3 3 -2 9 -12 12 -14 6 -15 5 -6 -5z"/>
<path d="M308 393 c-10 -2 -18 -8 -18 -13 0 -12 33 -5 38 8 2 7 2 11 0 11 -1
-1 -11 -3 -20 -6z"/>
<path d="M460 386 c0 -9 5 -16 10 -16 6 0 10 4 10 9 0 6 -4 13 -10 16 -5 3
-10 -1 -10 -9z"/>
<path d="M436 377 c3 -10 9 -15 12 -12 3 3 0 11 -7 18 -10 9 -11 8 -5 -6z"/>
<path d="M274 357 c3 -10 -1 -25 -9 -33 -20 -20 -19 -38 2 -55 15 -13 15 -12
2 8 -12 20 -11 25 3 39 10 10 21 13 30 8 7 -5 22 -10 33 -11 14 -3 17 -1 9 7
-6 6 -19 12 -28 14 -9 1 -23 11 -32 22 -14 17 -15 17 -10 1z"/>
<path d="M363 320 c2 -8 10 -14 16 -12 6 1 11 -7 11 -17 0 -11 -8 -21 -17 -23
-10 -3 11 -5 47 -5 52 0 57 1 25 6 -31 5 -40 10 -40 26 0 16 6 19 28 17 15 -2
35 1 43 6 11 6 -2 9 -40 8 -31 -1 -56 -5 -56 -11 0 -5 -5 -3 -11 5 -9 13 -10
13 -6 0z"/>
<path d="M523 284 c-6 -13 -7 -24 -3 -24 9 0 25 39 18 45 -2 2 -8 -7 -15 -21z"/>
<path d="M338 243 c7 -3 16 -2 19 1 4 3 -2 6 -13 5 -11 0 -14 -3 -6 -6z"/>
<path d="M378 238 c5 -5 16 -8 23 -6 8 3 3 7 -10 11 -17 4 -21 3 -13 -5z"/>
<path d="M428 243 c6 -2 18 -2 25 0 6 3 1 5 -13 5 -14 0 -19 -2 -12 -5z"/>
<path d="M276 221 c12 -13 229 -19 241 -7 3 3 -47 5 -110 4 -64 0 -122 3 -129
8 -10 5 -10 4 -2 -5z"/>
</g>
</svg>
